# xmcd
#
# Track frame offsets: 
#        150
#        13926
#        26389
#        39211
#        50215
#        62803
#        75646
#        88623
#        101874
#        114579
#        127461
#        140022
#        151735
#        164385
#        176596
#        189667
#        201395
#        215783
#        228859
#        241960
#
# Disc length: 3394 seconds
#
# Revision: 0
# Processed by: cddbd v1.5.1PL0 Copyright (c) Steve Scherf et al.
# Submitted via: ExactAudioCopy v0.95a4
#
DISCID=220d4014
DTITLE=Hank Williams - Country And Folk Roots
DYEAR=2003
DGENRE=Country
TTITLE0=Ramblin' Man
TTITLE1=I Could Never Be Ashamed Of You
TTITLE2=Please Make Up Your Mind
TTITLE3=My Heart Would Know
TTITLE4=Six More Miles (To The Graveyard)
TTITLE5=May You Never Be Alone
TTITLE6=On The Banks Of The Old Pontchartrain
TTITLE7=Calling You
TTITLE8=Wealth Won't Save Your Soul
TTITLE9=When God Comes And Gathers His Jewels
TTITLE10=Dear Brother
TTITLE11=Lost On The River
TTITLE12=I Don't Care (If Tomorrow Never Comes)
TTITLE13=My Love For You (Has Turned To Hate)
TTITLE14=Jesus Remembered Me
TTITLE15=Dear John
TTITLE16=Men With Broken Hearts
TTITLE17=The Pale Horse And His Rider
TTITLE18=A House Without Love
TTITLE19=Everything's Okay
EXTD=
EXTT0=
EXTT1=
EXTT2=
EXTT3=
EXTT4=
EXTT5=
EXTT6=
EXTT7=
EXTT8=
EXTT9=
EXTT10=
EXTT11=
EXTT12=
EXTT13=
EXTT14=
EXTT15=
EXTT16=
EXTT17=
EXTT18=
EXTT19=
PLAYORDER=
